<svg xmlns="http://www.w3.org/2000/svg" version="1.1" viewBox="-5.0 -10.0 110.0 135.0">
 <path d="m54.617 45.383c-4.1016-4.1055-11.148-1.1836-11.148 4.6172s7.0469 8.7227 11.148 4.6172c2.5508-2.5508 2.5508-6.6836 0-9.2344zm-6.9922-38.129c0-3.125 4.75-3.125 4.75 0v9.582c16.469 1.1641 29.625 14.32 30.785 30.789h9.582c3.1289 0 3.1289 4.75 0 4.75h-9.582c-1.1602 16.469-14.316 29.625-30.785 30.785v9.582c0 3.125-4.75 3.125-4.75 0v-9.6797h4.75v-22.035c4.3242-0.92578 7.7266-4.3281 8.6562-8.6562h22.035v-4.75l-22.039 0.003906c-0.92578-4.3242-4.3281-7.7266-8.6562-8.6562l0.003906-22.035h-4.75zm-30.785 45.121h-9.5859c-3.125 0-3.125-4.75 0-4.75h9.582c1.1641-16.469 14.32-29.625 30.789-30.785v22.133c-4.3242 0.92578-7.7266 4.3281-8.6523 8.6562l-22.039-0.003906v4.75h22.035c0.92578 4.3242 4.3281 7.7266 8.6523 8.6562v22.133c-16.465-1.1641-29.621-14.32-30.781-30.789z" fill-rule="evenodd"/>
<text x="0.0" y="117.5" font-size="5.0" font-weight="bold" font-family="Arbeit Regular, Helvetica, Arial-Unicode, Arial, Sans-serif" fill="#000000">Created by Hadi Mulyono</text><text x="0.0" y="122.5" font-size="5.0" font-weight="bold" font-family="Arbeit Regular, Helvetica, Arial-Unicode, Arial, Sans-serif" fill="#000000">from Noun Project</text></svg>